<svg xmlns="http://www.w3.org/2000/svg" viewBox="0 0 212.6 212.6"><defs><style>.cls-1{fill:#e0c5ac;}.cls-2{fill:#fff;}</style></defs><g id="GRAFICA"><circle class="cls-1" cx="106.3" cy="106.3" r="104.88"/><path class="cls-2" d="M59.25,164.13V132.41A27.11,27.11,0,0,1,86.36,105.3V137a27.1,27.1,0,0,1-27.11,27.1Z"/><path class="cls-2" d="M101.13,105.11a.14.14,0,0,0,0,.28c4.95.6,9.8,6,11.74,10.34,2.48,5.5,2,12,2.64,17.87.32,3,.84,8.49,2,11.84a23.61,23.61,0,0,0,5.69,9.11,30.62,30.62,0,0,0,10.69,6.76q6.7,2.69,16.56,2.68h15.05a24.52,24.52,0,0,1-11.29-10.78,34.8,34.8,0,0,1-4.26-17.3,38.19,38.19,0,0,0-5.1-18.48,21.85,21.85,0,0,0-6-6.69,27.33,27.33,0,0,0-16-5.54,32.36,32.36,0,0,0,18.86-6.52c8-6.29,9.75-16.17,9.75-22.78,0-7.49-3.78-16.11-9.91-21-4.17-3.36-10.76-8.49-24-8.41-3.72,0-8.61,0-13.37,0h0c5.35,2.41,17.79,9.09,17.79,29.43C121.91,90,114.77,101.6,101.13,105.11Z"/></g></svg>